<svg width="11" height="13" viewBox="0 0 11 13" fill="none" xmlns="http://www.w3.org/2000/svg">
<path d="M0.314722 12.926C0.41017 12.9771 0.518034 13.0026 0.627111 12.9998C0.736188 12.997 0.842499 12.966 0.935 12.91L5.5 10.1511L10.065 12.91C10.1575 12.9659 10.2638 12.9969 10.3728 12.9996C10.4819 13.0024 10.5897 12.9769 10.6851 12.9258C10.7805 12.8746 10.8601 12.7997 10.9154 12.7089C10.9708 12.618 11 12.5144 11 12.4089V1.77271C11 1.30256 10.8068 0.851661 10.463 0.519214C10.1192 0.186767 9.6529 0 9.16667 0H1.83333C1.3471 0 0.880788 0.186767 0.536971 0.519214C0.193154 0.851661 7.21292e-08 1.30256 7.21292e-08 1.77271V12.4089C-5.29313e-05 12.5144 0.0291068 12.618 0.0844509 12.709C0.139795 12.7999 0.219305 12.8748 0.314722 12.926ZM1.22222 1.77271C1.22222 1.61599 1.28661 1.46569 1.40121 1.35488C1.51582 1.24406 1.67126 1.1818 1.83333 1.1818H9.16667C9.32874 1.1818 9.48418 1.24406 9.59879 1.35488C9.71339 1.46569 9.77778 1.61599 9.77778 1.77271V11.3453L5.82389 8.95571C5.72676 8.89702 5.61453 8.86589 5.5 8.86589C5.38547 8.86589 5.27324 8.89702 5.17611 8.95571L1.22222 11.3453V1.77271Z" fill="white" fill-opacity="0.8"/>
</svg>
