<svg width="15" height="14" viewBox="0 0 15 14" fill="none" xmlns="http://www.w3.org/2000/svg">
<path d="M14.0231 5.34886V12.8997C14.0231 13.1964 13.9044 13.4661 13.7048 13.6602C13.5107 13.8598 13.241 13.9784 12.9444 13.9784L1.0787 14C0.485414 14 0 13.5146 0 12.9213V4.27016C0 3.67149 0.485414 3.19147 1.0787 3.19147H5.39348C5.69013 3.19147 5.93283 3.42878 5.93283 3.73082C5.93283 4.02746 5.69013 4.27016 5.39348 4.27016H1.0787V12.9213L12.9444 12.8997V5.34886C12.9444 5.04683 13.1871 4.80951 13.4837 4.80951C13.7804 4.80951 14.0231 5.04683 14.0231 5.34886Z" fill="white"/>
<path d="M7.01142 7.50463C7.0632 7.50463 7.11552 7.49708 7.16621 7.48197L9.34464 6.82882C9.42986 6.80293 9.50806 6.75655 9.57117 6.69345L13.8185 2.44608C14.0294 2.23519 14.0294 1.89433 13.8185 1.68344L12.2933 0.158164C12.0824 -0.0527213 11.7415 -0.0527213 11.5306 0.158164L7.28325 4.40553C7.22015 4.46864 7.17376 4.5463 7.14788 4.63206L6.49472 6.81049C6.43809 7.00034 6.48987 7.20637 6.6301 7.3466C6.73258 7.44907 6.87065 7.50463 7.01142 7.50463ZM8.14243 5.07163L11.9119 1.30158L12.6746 2.06476L8.90507 5.8348L7.81559 6.16111L8.14243 5.07163Z" fill="white"/>
</svg>
