<svg width="15" height="13" viewBox="0 0 15 13" fill="none" xmlns="http://www.w3.org/2000/svg">
<path d="M14.4231 1.15385H6.34615C6.34615 0.5175 5.82865 0 5.19231 0H4.03846C3.40212 0 2.88462 0.5175 2.88462 1.15385H0.576923C0.258462 1.15385 0 1.41173 0 1.73077C0 2.04981 0.258462 2.30769 0.576923 2.30769H2.88462C2.88462 2.94404 3.40212 3.46154 4.03846 3.46154H5.19231C5.82865 3.46154 6.34615 2.94404 6.34615 2.30769H14.4231C14.7415 2.30769 15 2.04981 15 1.73077C15 1.41173 14.7415 1.15385 14.4231 1.15385ZM4.03846 2.30769V1.15385H5.19231L5.19288 1.72846C5.19288 1.72962 5.19231 1.73019 5.19231 1.73077C5.19231 1.73135 5.19288 1.73192 5.19288 1.73308V2.30769H4.03846Z" fill="white"/>
<path d="M14.4231 5.76923H10.9615C10.9615 5.13289 10.444 4.61539 9.80769 4.61539H8.65385C8.0175 4.61539 7.5 5.13289 7.5 5.76923H0.576923C0.258462 5.76923 0 6.02712 0 6.34616C0 6.66519 0.258462 6.92308 0.576923 6.92308H7.5C7.5 7.55943 8.0175 8.07693 8.65385 8.07693H9.80769C10.444 8.07693 10.9615 7.55943 10.9615 6.92308H14.4231C14.7415 6.92308 15 6.66519 15 6.34616C15 6.02712 14.7415 5.76923 14.4231 5.76923ZM8.65385 6.92308V5.76923H9.80769L9.80827 6.34385C9.80827 6.345 9.80769 6.34558 9.80769 6.34616C9.80769 6.34673 9.80827 6.34731 9.80827 6.34846V6.92308H8.65385Z" fill="white"/>
<path d="M14.4231 10.3846H6.34615C6.34615 9.74824 5.82865 9.23074 5.19231 9.23074H4.03846C3.40212 9.23074 2.88462 9.74824 2.88462 10.3846H0.576923C0.258462 10.3846 0 10.6425 0 10.9615C0 11.2806 0.258462 11.5384 0.576923 11.5384H2.88462C2.88462 12.1748 3.40212 12.6923 4.03846 12.6923H5.19231C5.82865 12.6923 6.34615 12.1748 6.34615 11.5384H14.4231C14.7415 11.5384 15 11.2806 15 10.9615C15 10.6425 14.7415 10.3846 14.4231 10.3846ZM4.03846 11.5384V10.3846H5.19231L5.19288 10.9592C5.19288 10.9604 5.19231 10.9609 5.19231 10.9615C5.19231 10.9621 5.19288 10.9627 5.19288 10.9638V11.5384H4.03846Z" fill="white"/>
</svg>
