<svg width="11" height="15" viewBox="0 0 11 15" fill="none" xmlns="http://www.w3.org/2000/svg">
<path d="M0.599019 14.077C0.269559 14.077 0 13.8074 0 13.4779V0.59902C0 0.269559 0.269559 0 0.599019 0C0.92848 0 1.19804 0.269559 1.19804 0.59902V13.5079C1.19804 13.8074 0.92848 14.077 0.599019 14.077Z" fill="white" fill-opacity="0.8"/>
<path d="M2.66572 9.52434C1.85704 9.52434 1.10826 9.40453 0.419392 9.16492C0.179784 9.07507 0.0300293 8.86541 0.0300293 8.59586V1.61728C0.0300293 1.43757 0.119882 1.25787 0.269637 1.13806C0.419392 1.01826 0.629049 0.988307 0.808755 1.04821C1.37782 1.25787 1.97684 1.34772 2.66572 1.34772C3.53429 1.34772 4.43282 1.19796 5.3613 1.01826C6.28978 0.868503 7.27817 0.688797 8.26655 0.688797C9.07523 0.688797 9.824 0.808601 10.5129 1.04821C10.7525 1.13806 10.9022 1.34772 10.9022 1.61728V8.62581C10.9022 8.80551 10.8124 8.98522 10.6626 9.10502C10.5129 9.22483 10.3032 9.25478 10.1235 9.19488C9.55444 8.98522 8.95542 8.89537 8.26655 8.89537C7.39797 8.89537 6.49944 9.04512 5.57096 9.22483C4.61253 9.34463 3.6541 9.52434 2.66572 9.52434ZM1.19812 8.17654C1.64738 8.29635 2.1266 8.35625 2.66572 8.35625C3.53429 8.35625 4.43282 8.20649 5.3613 8.02679C6.28978 7.87703 7.27817 7.69733 8.26655 7.69733C8.77572 7.69733 9.25493 7.75723 9.73415 7.84708V2.03659C9.28488 1.91679 8.80567 1.85689 8.26655 1.85689C7.39797 1.85689 6.49944 2.00664 5.57096 2.18635C4.64248 2.3361 3.6541 2.51581 2.66572 2.51581C2.15655 2.51581 1.67733 2.4559 1.19812 2.36605V8.17654Z" fill="white" fill-opacity="0.8"/>
</svg>
