<svg width="15" height="11" viewBox="0 0 15 11" fill="none" xmlns="http://www.w3.org/2000/svg">
<path d="M6.72406 2.68995H5.3792V0.448517C5.3792 0.262926 5.26534 0.0970607 5.0932 0.0298179C4.92106 -0.0365284 4.72471 0.0100933 4.59919 0.147269L0.11633 5.07841C-0.0387767 5.24876 -0.0387767 5.50966 0.11633 5.68091L4.59919 10.6121C4.68615 10.7071 4.80719 10.7591 4.93092 10.7591C4.98561 10.7591 5.0403 10.7492 5.0932 10.7295C5.26534 10.6623 5.3792 10.4964 5.3792 10.3108V8.06937H6.62634C9.18515 8.06937 11.6633 8.98567 13.6052 10.6515C13.737 10.7654 13.9262 10.7914 14.084 10.7178C14.2436 10.6452 14.3449 10.4856 14.3449 10.3108C14.3449 6.10857 10.9263 2.68995 6.72406 2.68995ZM6.62634 7.1728H4.93092C4.68347 7.1728 4.48263 7.37363 4.48263 7.62109V9.15154L1.05414 5.37966L4.48263 1.60778V3.13823C4.48263 3.38568 4.68347 3.58652 4.93092 3.58652H6.72406C8.51989 3.58652 10.209 4.28584 11.4786 5.55539C12.5159 6.59272 13.1731 7.90978 13.3784 9.33533C11.4149 7.93489 9.05425 7.1728 6.62634 7.1728Z" fill="white" fill-opacity="0.8"/>
</svg>
