<svg width="13" height="13" viewBox="0 0 13 13" fill="none" xmlns="http://www.w3.org/2000/svg">
<path d="M10.2143 7.42857C9.29303 7.42857 8.47728 7.87997 7.96981 8.57106L5.44932 7.31447C5.52825 7.05668 5.57143 6.78333 5.57143 6.5C5.57143 6.21667 5.52825 5.94332 5.44932 5.68553L7.96981 4.42894C8.47728 5.12003 9.29303 5.57143 10.2143 5.57143C11.7504 5.57143 13 4.3218 13 2.78571C13 1.24962 11.7504 0 10.2143 0C8.6782 0 7.42857 1.24962 7.42857 2.78571C7.42857 3.06904 7.47175 3.34239 7.55068 3.60019L5.03019 4.85678C4.52272 4.16569 3.70697 3.71429 2.78571 3.71429C1.24962 3.71429 0 4.96391 0 6.5C0 8.03609 1.24962 9.28571 2.78571 9.28571C3.70697 9.28571 4.52272 8.83431 5.03019 8.14322L7.55068 9.39981C7.47175 9.65761 7.42857 9.93095 7.42857 10.2143C7.42857 11.7504 8.6782 13 10.2143 13C11.7504 13 13 11.7504 13 10.2143C13 8.6782 11.7504 7.42857 10.2143 7.42857ZM10.2143 0.928571C11.2383 0.928571 12.0714 1.76173 12.0714 2.78571C12.0714 3.8097 11.2383 4.64286 10.2143 4.64286C9.1903 4.64286 8.35714 3.8097 8.35714 2.78571C8.35714 1.76173 9.1903 0.928571 10.2143 0.928571ZM2.78571 8.35714C1.76173 8.35714 0.928571 7.52398 0.928571 6.5C0.928571 5.47602 1.76173 4.64286 2.78571 4.64286C3.8097 4.64286 4.64286 5.47602 4.64286 6.5C4.64286 7.52398 3.8097 8.35714 2.78571 8.35714ZM10.2143 12.0714C9.1903 12.0714 8.35714 11.2383 8.35714 10.2143C8.35714 9.1903 9.1903 8.35714 10.2143 8.35714C11.2383 8.35714 12.0714 9.1903 12.0714 10.2143C12.0714 11.2383 11.2383 12.0714 10.2143 12.0714Z" fill="white" fill-opacity="0.8"/>
</svg>
