<svg width="10" height="10" viewBox="0 0 10 10" fill="none" xmlns="http://www.w3.org/2000/svg">
<path d="M9.98829 0.746521C9.96663 0.349295 9.65071 0.0334156 9.25348 0.0117359C8.45196 -0.0320532 6.88352 0.0105445 5.38375 0.786267C4.6192 1.18174 3.81061 1.85222 3.16532 2.62582C3.15737 2.63535 3.14963 2.64494 3.14174 2.65449L1.67729 2.76761C1.43624 2.78625 1.22153 2.9126 1.08821 3.11424L0.0891064 4.62541C-0.0120068 4.77834 -0.0280811 4.96972 0.0460791 5.13736C0.120259 5.30502 0.272681 5.42185 0.453833 5.44992L1.68764 5.64101C1.68329 5.665 1.67891 5.68896 1.67491 5.71295C1.63383 5.95865 1.71524 6.21127 1.8927 6.38871L3.61129 8.10732C3.75842 8.25445 3.95723 8.33556 4.16094 8.33556C4.20289 8.33556 4.24508 8.33211 4.28707 8.3251C4.31106 8.32109 4.33502 8.31672 4.35901 8.31236L4.5501 9.54619C4.57817 9.72734 4.695 9.87978 4.86262 9.95394C4.93237 9.9848 5.00618 10 5.07965 10C5.18284 10 5.2853 9.96998 5.37459 9.91094L6.88577 8.91181C7.08743 8.77847 7.21375 8.56377 7.23235 8.32273L7.34547 6.8583C7.35502 6.85041 7.36463 6.84267 7.37416 6.83472C8.14778 6.18943 8.81828 5.38084 9.21373 4.61627C9.9895 3.11644 10.032 1.54799 9.98829 0.746521ZM6.56262 8.42303L5.11709 9.37875L4.93084 8.17631C5.54178 7.99668 6.14614 7.70898 6.7219 7.32357L6.64821 8.27758C6.64362 8.33709 6.61241 8.39011 6.56262 8.42303ZM4.02561 7.69301L2.307 5.97439C2.26315 5.93053 2.24288 5.8689 2.25282 5.80955C2.30391 5.50402 2.38331 5.21318 2.48159 4.9392L5.06026 7.51787C4.7312 7.63574 4.43645 7.70605 4.19045 7.74719C4.131 7.75707 4.06946 7.73685 4.02561 7.69301ZM1.72243 3.35181L2.67641 3.27812C2.29098 3.85388 2.00329 4.45824 1.82366 5.06918L0.621235 4.88295L1.57698 3.4374C1.60991 3.3876 1.66293 3.3564 1.72243 3.35181ZM6.99889 6.38474C6.52559 6.77953 6.06616 7.06508 5.64268 7.2717L2.72821 4.35722C2.99887 3.80441 3.3292 3.34408 3.61526 3.00115C4.21243 2.28523 4.95514 1.66763 5.65297 1.3067C7.02942 0.594724 8.47963 0.556384 9.22159 0.596775C9.31979 0.602126 9.39789 0.680232 9.40325 0.778455C9.4437 1.52041 9.40528 2.9706 8.6933 4.34707C8.33239 5.04488 7.71479 5.78758 6.99889 6.38474Z" fill="#5CC489"/>
<path d="M6.8503 4.61425C7.22534 4.61421 7.60054 4.47144 7.88606 4.18591C8.16274 3.90925 8.31509 3.5414 8.31509 3.15015C8.31509 2.7589 8.16272 2.39104 7.88606 2.11438C7.31493 1.54323 6.38563 1.54327 5.81454 2.11438C5.53786 2.39104 5.3855 2.7589 5.3855 3.15015C5.3855 3.5414 5.53788 3.90925 5.81454 4.18591C6.10013 4.47149 6.47513 4.61429 6.8503 4.61425ZM6.22882 2.52868C6.40015 2.35733 6.6252 2.27167 6.85026 2.27167C7.07534 2.27167 7.3004 2.35733 7.47173 2.52868C7.63772 2.69468 7.72913 2.91538 7.72913 3.15013C7.72913 3.38487 7.63772 3.6056 7.47173 3.77159C7.12907 4.11427 6.57147 4.11425 6.2288 3.77159C6.0628 3.6056 5.97138 3.38489 5.97138 3.15015C5.97138 2.9154 6.06282 2.69468 6.22882 2.52868Z" fill="#5CC489"/>
<path d="M0.299062 8.24119C0.374043 8.24119 0.449023 8.21259 0.506211 8.15537L1.46271 7.19886C1.57713 7.08444 1.57713 6.89896 1.46271 6.78454C1.34832 6.67013 1.16281 6.67013 1.0484 6.78454L0.0919141 7.74105C-0.0225 7.85546 -0.0225 8.04095 0.0919141 8.15537C0.149102 8.21257 0.224082 8.24119 0.299062 8.24119Z" fill="#5CC489"/>
<path d="M2.33932 7.66101C2.22492 7.54659 2.03941 7.54659 1.925 7.66101L0.0860547 9.49997C-0.0283594 9.61439 -0.0283594 9.79988 0.0860547 9.91429C0.143262 9.9715 0.218223 10.0001 0.293203 10.0001C0.368184 10.0001 0.443164 9.9715 0.500352 9.91427L2.3393 8.07532C2.45373 7.96091 2.45373 7.77542 2.33932 7.66101Z" fill="#5CC489"/>
<path d="M2.80159 8.53747L1.84509 9.49398C1.73067 9.60839 1.73067 9.79388 1.84509 9.9083C1.90229 9.9655 1.97727 9.99412 2.05224 9.99412C2.1272 9.99412 2.2022 9.96552 2.25938 9.9083L3.21588 8.95179C3.3303 8.83737 3.3303 8.65189 3.21588 8.53747C3.10149 8.42306 2.91598 8.42306 2.80159 8.53747Z" fill="#5CC489"/>
</svg>
